<svg width="123" height="78" viewBox="0 0 123 78" fill="none" xmlns="http://www.w3.org/2000/svg">
<path id="Vector 4" d="M66.502 2L72.1289 22.2222M66.502 2L85.1193 26.4444M66.502 2L47.3882 24.2736M86.7216 74.6667L55.2865 75.1673M86.7216 74.6667L78.6214 45.5556M86.7216 74.6667L100.938 74.2058M28.2744 75.5975L3 76L27.1687 47.8358M28.2744 75.5975L72.1289 22.2222M28.2744 75.5975L55.2865 75.1673M28.2744 75.5975L27.1687 47.8358M72.1289 22.2222L78.6214 45.5556M72.1289 22.2222L110.969 73.8807M55.2865 75.1673L78.6214 45.5556M55.2865 75.1673L47.3882 24.2736M78.6214 45.5556L100.938 74.2058M100.938 74.2058L110.969 73.8807M100.938 74.2058L85.1193 26.4444M110.969 73.8807L121 73.5556L102.518 49.2889M110.969 73.8807L102.518 49.2889M85.1193 26.4444L102.518 49.2889M47.3882 24.2736L27.1687 47.8358" stroke="#424242" stroke-width="2"/>
</svg>
